<svg id="df02a0cd-b5c6-4750-b152-6591d3d5b6b9" data-name="Layer 1" xmlns="http://www.w3.org/2000/svg" viewBox="0 0 430.3 346.62"><defs><style>.\31 296dbbd-6542-418f-8034-cd23c8a54b7a,.\33 44b44b8-cdb9-4a3e-a2dd-b930fa1225c1{fill:#fff;}.\31 296dbbd-6542-418f-8034-cd23c8a54b7a{font-size:39px;font-family:Staatliches-Regular, Staatliches;}.\30 e3b0753-80ed-40df-b36d-9fb20b2f6700{letter-spacing:-0.02em;}.f1b807c1-343e-4dcf-a0a6-bbff8b39df74{letter-spacing:-0.01em;}.\34 a7cabcb-a179-43a6-bea1-6450b8ba6088{letter-spacing:-0.06em;}</style></defs><title>cw-logo</title><polygon class="344b44b8-cdb9-4a3e-a2dd-b930fa1225c1" points="169.8 331.5 169.8 266.27 196.8 240.47 196.8 331.5 169.8 331.5"/><path class="344b44b8-cdb9-4a3e-a2dd-b930fa1225c1" d="M402,345.64V435H376V370.48l26-24.84m1-2.34-28,26.75V436h28V343.3Z" transform="translate(-205.7 -104)"/><polygon class="344b44b8-cdb9-4a3e-a2dd-b930fa1225c1" points="253.3 332 253.3 183.3 225.3 210.51 225.3 332 253.3 332"/><polygon class="344b44b8-cdb9-4a3e-a2dd-b930fa1225c1" points="309.3 332 309.3 127.3 281.3 154.72 281.3 332 309.3 332"/><path class="344b44b8-cdb9-4a3e-a2dd-b930fa1225c1" d="M564.4,111,388.26,287.14l-32.19,32.19L242.4,433H222.6l322-322h19.8m16.9-7H541.7l-336,336h39.6L361,324.28l32.19-32.19L581.3,104Z" transform="translate(-205.7 -104)"/><text class="1296dbbd-6542-418f-8034-cd23c8a54b7a" transform="translate(319.3 301.68)">CH<tspan class="0e3b0753-80ed-40df-b36d-9fb20b2f6700" x="36.19" y="0">A</tspan><tspan x="52.06" y="0">SE</tspan></text><text class="1296dbbd-6542-418f-8034-cd23c8a54b7a" transform="translate(319.3 334.68)">W<tspan class="f1b807c1-343e-4dcf-a0a6-bbff8b39df74" x="24.53" y="0">E</tspan><tspan class="4a7cabcb-a179-43a6-bea1-6450b8ba6088" x="40.52" y="0">A</tspan><tspan x="54.95" y="0">VER</tspan></text><path class="344b44b8-cdb9-4a3e-a2dd-b930fa1225c1" d="M295,350a173.65,173.65,0,0,1-18.49-78A175.92,175.92,0,0,1,322,153.78c29.2-31.65,67.72-49.13,108.52-49.28L430.38,128c-34.52.85-67,16.18-91.43,43.19a151,151,0,0,0-38.08,100.3,148.53,148.53,0,0,0,12.65,60Z" transform="translate(-205.7 -104)"/><path class="344b44b8-cdb9-4a3e-a2dd-b930fa1225c1" d="M430,105l-.11,22.52c-34.48,1-66.87,16.36-91.3,43.34a147.07,147.07,0,0,0-21.65,31.83,150.24,150.24,0,0,0-4,128.67l-17.8,17.8a174.41,174.41,0,0,1,1.64-158.06,170.2,170.2,0,0,1,25.59-37,154.79,154.79,0,0,1,49-35.92A141.41,141.41,0,0,1,430,105m1-1c-42.52,0-81.27,19-109.39,49.44C313.85,161.86,275.95,204.7,276,272a174.55,174.55,0,0,0,18.85,78.85l19.26-19.26a148,148,0,0,1-12.74-60.09,151.23,151.23,0,0,1,37.95-100c23.44-25.89,55.82-42.29,91.56-43L431,104Z" transform="translate(-205.7 -104)"/><polygon class="344b44b8-cdb9-4a3e-a2dd-b930fa1225c1" points="104.75 271.56 122.55 253.76 126.33 259 108.62 276.74 104.75 271.56"/><path class="344b44b8-cdb9-4a3e-a2dd-b930fa1225c1" d="M328.19,358.53l3.19,4.42-7.29,7.3L314.38,380l-3.27-4.37,17.08-17.08m.12-1.54-18.52,18.52,4.48,6L332.68,363,328.31,357Z" transform="translate(-205.7 -104)"/><rect class="344b44b8-cdb9-4a3e-a2dd-b930fa1225c1" x="169.3" y="308" width="140" height="28"/><path class="344b44b8-cdb9-4a3e-a2dd-b930fa1225c1" d="M614.4,111,438.26,287.14l-32.19,32.19L292.4,433H272.6l322-322h19.8m16.9-7H591.7l-336,336h39.6L411,324.28l32.19-32.19L631.3,104Z" transform="translate(-205.7 -104)"/></svg>