<svg xmlns="http://www.w3.org/2000/svg" xmlns:xlink="http://www.w3.org/1999/xlink" viewBox="0 0 1265.68 1420.23"><defs><style>.cls-1,.cls-18,.cls-21{fill:#1e1e1e;}.cls-1,.cls-20,.cls-21{stroke:#0f0f0f;}.cls-1,.cls-13,.cls-14,.cls-15,.cls-17,.cls-2,.cls-20,.cls-21,.cls-23,.cls-25,.cls-3{stroke-linecap:round;}.cls-1,.cls-10,.cls-11,.cls-13,.cls-15,.cls-17,.cls-23,.cls-25{stroke-miterlimit:10;}.cls-1,.cls-20,.cls-23{stroke-width:10px;}.cls-2{fill:#3f383d;}.cls-2,.cls-3{stroke:#302b2e;}.cls-14,.cls-2,.cls-20,.cls-21,.cls-3{stroke-linejoin:round;}.cls-14,.cls-15,.cls-17,.cls-2,.cls-21,.cls-25,.cls-3{stroke-width:5px;}.cls-3{fill:#4f464c;}.cls-4{fill:#fef1e7;}.cls-5{fill:#3f373b;}.cls-6,.cls-7,.cls-8{opacity:0.9;}.cls-6{fill:url(#radial-gradient);}.cls-7{fill:url(#radial-gradient-2);}.cls-8{fill:url(#radial-gradient-3);}.cls-9{fill:#f4f4f4;}.cls-10{fill:#3d3c47;}.cls-10,.cls-11{stroke:#2e2e33;stroke-width:8px;}.cls-11{fill:#56565e;}.cls-12{fill:#603f4f;}.cls-13{fill:#60483c;stroke-width:7px;}.cls-13,.cls-14,.cls-15,.cls-23,.cls-25{stroke:#3f373b;}.cls-14,.cls-20{fill:#6b5d66;}.cls-15,.cls-17{fill:#fef0e7;}.cls-16{opacity:0.08;}.cls-17{stroke:#a36e66;}.cls-19{fill:#0f0f0f;}.cls-22{fill:#c16053;}.cls-23{fill:#e8785c;}.cls-24{opacity:0.15;}.cls-25{fill:#fff;}</style><radialGradient id="radial-gradient" cx="556.28" cy="982.92" r="135.95" gradientTransform="translate(18.56 33.67) scale(0.95 0.95)" gradientUnits="userSpaceOnUse"><stop offset="0" stop-color="#ffcfcb"/><stop offset="0.75" stop-color="#ffdecf" stop-opacity="0"/></radialGradient><radialGradient id="radial-gradient-2" cx="1109.8" cy="921.81" r="135.95" gradientTransform="translate(18.56 37.52) scale(0.95 0.95)" xlink:href="#radial-gradient"/><radialGradient id="radial-gradient-3" cx="1117.89" cy="921.81" r="135.95" gradientTransform="translate(18.56 37.52) scale(0.95 0.95)" xlink:href="#radial-gradient"/></defs><title>chaseSmile</title><g id="Layer_2" data-name="Layer 2"><g id="Layer_22" data-name="Layer 22"><path class="cls-1" d="M31.78,770c-1.53,20.78-20.57,337.27,183.62,459.24,108.71,64.94,228,43.3,279.34,34,453.52-82.22,700-760.95,731.84-852A976.7,976.7,0,0,0,876.74,339.9c-44.18-.75-188.06-.18-357.26,61.4C256.32,497.08,99.5,679.44,31.78,770Z"/></g><g id="Layer_18" data-name="Layer 18"><path class="cls-2" d="M639.4,1202.23q-5.16,24.68-10.33,49.33-10.83-25.15-21.67-50.33-2.65,21-5.33,42l-17.67-54.67q-2.52,26.31-5,52.6-20.22-37-40.46-74c-.36-.9-.63-1.33-.82-1.29q-1.87.35,7.67,62.33l-43.34-74.67q9.51,38.18,19,76.34c-5.38-6.05-13.23-15.25-22-27-25.4-34-35.42-58.45-38.66-57.34s3,25.35,10.33,44a200,200,0,0,0,11.3,24,554.7,554.7,0,0,1-58.3-67.7q-7.8-10.7-14.71-21.2c-.81-1.73-1.35-2.55-1.62-2.47q-1.8.54,12,53.67l-68.67-80,17,48.66q-29.67-35.65-59.33-71.33l15,57.67a232.52,232.52,0,0,1-42.34-66.34,227.78,227.78,0,0,1-10.33-30.66q2.16,24,4.33,48-16.11-33.33-32.23-66.67c-.43-.89-1.29-3.77-1.77-3.67-1.43.31,3,26.88,7.34,51a285.53,285.53,0,0,1-46.67-90,280.53,280.53,0,0,1-10-46"/><path class="cls-3" d="M814.33,1211.4q4.65,23.08,9.29,46.16l19.5-47.1,4.8,39.31q7.94-25.57,15.89-51.16,2.28,24.62,4.55,49.22l36.39-69.22c.33-.84.58-1.24.75-1.21q1.68.33-6.9,58.33l39-69.87-17.09,71.43c4.84-5.66,11.9-14.27,19.79-25.27,22.86-31.84,31.88-54.69,34.79-53.65s-2.73,23.72-9.3,41.18A191.27,191.27,0,0,1,955.61,1222a514,514,0,0,0,52.45-63.35q7-10,13.24-19.84a14.22,14.22,0,0,1,.91-1.79c.08-.14.47-.54.54-.52.63.15-7.79,34.62-16.39,69.19l67.38-93.83-19.38,62.71,57.46-83.92q-7.41,31.57-14.83,63.17a291.08,291.08,0,0,0,48.72-100l-3.9,44.92,29-62.39,1.59-3.43"/></g><g id="Face"><path class="cls-4" d="M420.93,1417.73c5.93-22.93,18.85-54.57,47-80.92,28.8-26.94,59.6-36,72.75-39.93a198.81,198.81,0,0,1,56.35-8.1,209.07,209.07,0,0,1,45.16,5,2.47,2.47,0,0,0,.54,0,2.55,2.55,0,0,0,1.56-.54,2.51,2.51,0,0,0,.94-2l.08-52.38a2.5,2.5,0,0,0-1.7-2.37L621.21,1229c-7.48-2.56-15.13-5.23-22.72-7.93-76-27-144.85-55.75-176.58-71.06-49.42-23.84-132.13-63.73-197.49-143.66-66.73-81.6-82.87-165.8-98.48-247.22-30.7-160.16-.48-287,13.94-334.13,12-39.09,26.85-87.73,63-140.66,42.45-62.14,102.1-112.24,177.3-148.93C441.63,105.45,497.78,92,528,84.76A631.85,631.85,0,0,1,675.1,67.46c123.12,0,225.61,35,289.94,64.39a503.71,503.71,0,0,1,127.59,97.43c69,73,110.71,151.53,123.87,233.46,11.75,73.11,1.28,153.07,1.18,153.87a548.73,548.73,0,0,1-45.8,157.28,2.51,2.51,0,0,0,.45,2.76c21.5,22.94,58.19,71.94,62.41,142.36,2.09,34.86-4.23,69.28-18.78,102.32a270.6,270.6,0,0,1-34,56.26c-15.36,20.06-44.6,51.13-120.88,89-80,39.78-168.33,65-262.4,75a2.51,2.51,0,0,0-2.23,2.47l-.42,50.45a2.49,2.49,0,0,0,2.5,2.52h.15c7.63-.45,15.31-.68,22.84-.68,45,0,88.51,8.44,116.29,22.58,34.9,17.76,54.8,42.85,55,43.1,1.26,1.61,2.24,2.94,3.11,4.14a144.08,144.08,0,0,1,23.44,51.53Z"/><path class="cls-5" d="M675.1,70c122.62,0,224.72,34.86,288.83,64.13A501.12,501.12,0,0,1,1090.81,231c16.66,17.61,41.59,45.46,65.62,83.77,30.12,48,49.5,97.92,57.6,148.37,11.69,72.72,1.27,152.34,1.17,153.14a546.14,546.14,0,0,1-45.59,156.56,5,5,0,0,0,.89,5.52c21.27,22.69,57.57,71.16,61.75,140.8,2.06,34.46-4.19,68.49-18.58,101.16a267.63,267.63,0,0,1-33.65,55.75c-15.21,19.87-44.2,50.64-120,88.31-79.78,39.64-167.78,64.8-261.55,74.75a5,5,0,0,0-4.47,4.94l-.14,16.91-.28,33.54a5,5,0,0,0,5,5h.3c7.58-.46,15.21-.68,22.69-.68h0c44.65,0,87.7,8.34,115.15,22.31,34.35,17.48,54,42.16,54.17,42.42,1.25,1.59,2.24,2.94,3.05,4.05a141.41,141.41,0,0,1,22.26,47.57h-592c6.19-22.29,19-51.83,45.46-76.6,28.36-26.53,58.77-35.52,71.75-39.35a196,196,0,0,1,55.64-8,206.42,206.42,0,0,1,44.61,4.92,5,5,0,0,0,6.09-4.88l0-26.21,0-26.16a5,5,0,0,0-3.4-4.75l-16-5.4-6.36-2.15c-7.52-2.58-15.16-5.24-22.71-7.92-76-27-144.65-55.68-176.33-71-24-11.58-56.91-27.45-92-50.41-41.3-27-76.51-58.18-104.64-92.59-66.33-81.11-82.41-165-98-246.1-30.6-159.61-.5-286,13.87-332.93,11.91-38.92,26.74-87.36,62.68-140,42.2-61.77,101.52-111.6,176.33-148.09,61.2-29.86,117.18-43.27,147.25-50.48A629.69,629.69,0,0,1,675.1,70m0-5A632.45,632.45,0,0,0,527.36,82.33C467.45,96.69,300.72,136.7,200.82,282.94c-36.37,53.25-51.45,102.51-63.33,141.33-8.26,27-47.5,160.63-14,335.34,15.51,80.9,31.87,166.24,99,248.33,65.71,80.36,150.24,121.14,198.33,144.33,31.1,15,99.78,43.83,176.83,71.17,9.52,3.38,17.42,6.11,22.76,7.94l22.41,7.56q0,26.19-.08,52.37a211.57,211.57,0,0,0-45.7-5,201,201,0,0,0-57,8.2c-15.52,4.59-45.35,13.92-73.75,40.5-32.55,30.46-44.13,67-48.5,85.25h604.79a148.06,148.06,0,0,0-24.54-55.5c-.79-1.08-1.83-2.5-3.17-4.21,0,0-20-25.54-55.83-43.79-23.42-11.92-64.9-22.85-117.43-22.85-7.44,0-15.12.22-23,.68l.42-50.45c120.18-12.77,208.57-48.08,263.25-75.25,79.73-39.62,108.22-72.07,121.75-89.75,15.41-20.14,58.19-77.84,53.25-160.25-4.66-77.65-48.75-128.63-63.09-143.92a551.63,551.63,0,0,0,46-158s10.77-80.26-1.18-154.59c-19.12-119-94.85-203.41-124.53-234.79a506.61,506.61,0,0,0-128.29-97.95C919.16,108.14,811.81,65,675.1,65Z"/></g><g id="Layer_13" data-name="Layer 13"><ellipse class="cls-6" cx="549.7" cy="972.17" rx="151.7" ry="96.55"/><ellipse class="cls-7" cx="1078.2" cy="917.67" rx="151.7" ry="96.55"/><ellipse class="cls-8" cx="1085.93" cy="917.67" rx="151.7" ry="96.55"/></g><g id="Layer_6" data-name="Layer 6"><path class="cls-9" d="M1157.14,796.69c2.13-20.87,3.4-61-14.52-103.28a180.07,180.07,0,0,0-32.37-51.85,177.62,177.62,0,0,0-27.7-25,139.32,139.32,0,0,0-38.8-14c-50-9.95-91.25,11.1-105.83,19.5a375.24,375.24,0,0,0-14.5,83.84c-1.84,32.49-3,53.41,7,78.5,4.64,11.62,16.54,40.75,47,57.5,38.1,21,76.78,8.36,83.66,6,7.18-2.48,12.43-3.85,19.33-6.57C1099.36,833.87,1126.55,820.75,1157.14,796.69Z"/><path class="cls-10" d="M936.42,671.22c-15.35,24-15.44,49.1-15.34,62a135.86,135.86,0,0,0,5.21,36.38c3.1,10.66,9.17,31.58,27.38,50.12,1.79,1.83,33.68,33.12,79.41,30.67,6.74-.36,19.56-1.18,33.68-8.6,21.32-11.21,30.88-29.73,34.66-37.32,12.23-24.53,10-47.6,8-65.75-2.15-19.53-6.78-61.54-40.63-91-8.53-7.42-29-25.2-58.38-24.42a76.52,76.52,0,0,0-38.08,11.76c1.83,1.21,16.78,11.47,16.62,27.66,0,2.74-.13,12.63-7.53,17.75-8.61,6-19.75.4-21-.25-12.29-6.37-13.59-21.2-13.67-22.33A93.41,93.41,0,0,0,936.42,671.22Z"/><path class="cls-11" d="M985,731.75c-16.65,25.69-16.88,57-1.33,77.12,16.15,21,44.28,23.3,49.95,23.63a62.64,62.64,0,0,0,24.4-2.93c2.41-.8,31.1-10.91,39.23-39.07,3.33-11.54,1.8-21.25.87-26.75a72.48,72.48,0,0,0-18.37-36.88c.54,23.41-12.9,43.69-32.13,50-21.09,6.93-39.68-6.07-42-7.75C987.06,755.71,985.19,734.74,985,731.75Z"/><path class="cls-12" d="M912.25,612.24v31.82a143.37,143.37,0,0,1,22.32-18l.8-.52c59.49-38.13,118.49-19.81,118.49-19.81A127.72,127.72,0,0,1,1097.42,632c4.79,4.42,18.88,18.14,33.25,49.95,8.86,19.64,20.81,52.75,23.25,97.67l23.83-.16c-.71-18.16-6.69-131.2-84.17-180.85a149.11,149.11,0,0,0-45.5-19.32C982,564.17,926.05,602.26,912.25,612.24Z"/></g><g id="Layer_11" data-name="Layer 11"><path class="cls-13" d="M633.74,929.58l-22.48,42.59"/><path class="cls-13" d="M1069.49,863.41l-28.17,65.82"/><path class="cls-13" d="M1110.93,855.66l-45.36,99.82"/><path class="cls-13" d="M1150.73,860.2l-39.8,93.2"/><path class="cls-13" d="M1177.75,866.83l-35.43,76.32"/><path class="cls-13" d="M1198.75,889.37l-16,42.79"/><path class="cls-13" d="M600.07,926.51,554,1011.36"/><path class="cls-13" d="M565.42,920.68l-59.21,101.48"/><path class="cls-13" d="M521.24,927.48,468,1011.36"/><path class="cls-13" d="M485.61,930.48l-29,50"/></g><g id="Layer_9" data-name="Layer 9"><path class="cls-9" d="M309.1,822.3c-2.13-20.87-3.4-61,14.52-103.29A180.43,180.43,0,0,1,356,667.17a177.17,177.17,0,0,1,27.71-25,139.24,139.24,0,0,1,38.79-14c50-9.95,91.25,11.1,105.84,19.5a375.73,375.73,0,0,1,14.5,83.84c1.83,32.49,3,53.41-7,78.5-4.65,11.62-16.55,40.75-47,57.5-38.11,21-76.79,8.36-83.67,6-7.18-2.48-12.43-3.85-19.33-6.57C366.89,859.48,339.7,846.36,309.1,822.3Z"/><path class="cls-10" d="M529.83,700.51c15.34,24,15.43,49.1,15.33,62A135.69,135.69,0,0,1,540,798.88c-3.1,10.66-9.17,31.59-27.37,50.13-1.8,1.82-33.68,33.11-79.42,30.66-6.74-.36-19.56-1.18-33.68-8.6-21.32-11.21-30.87-29.73-34.65-37.31-12.24-24.53-10-47.61-8-65.75,2.15-19.54,6.77-61.55,40.62-91,8.53-7.42,29-25.21,58.38-24.43a76.59,76.59,0,0,1,38.08,11.76c-1.83,1.21-16.77,11.48-16.61,27.66,0,2.74.12,12.63,7.53,17.76,8.6,6,19.75.39,21-.25,12.29-6.37,13.58-21.21,13.66-22.34A93.69,93.69,0,0,1,529.83,700.51Z"/><path class="cls-11" d="M497.08,752.88c16.64,25.7,16.87,57,1.33,77.13-16.16,20.94-44.29,23.29-50,23.62a62.8,62.8,0,0,1-24.4-2.92c-2.41-.81-31.1-10.92-39.22-39.08-3.34-11.54-1.8-21.24-.88-26.75A72.35,72.35,0,0,1,402.33,748c-.54,23.41,12.9,43.68,32.12,50,21.1,6.93,39.69-6.08,42-7.75C495,776.84,496.86,755.88,497.08,752.88Z"/><path class="cls-12" d="M554,640.51v31.84a142.87,142.87,0,0,0-22.32-18l-.8-.52C471.38,615.68,412.38,634,412.38,634a127.64,127.64,0,0,0-43.55,26.24c-4.8,4.43-18.89,18.16-33.25,50-8.87,19.65-20.82,52.79-23.25,97.75l-23.84-.17c.71-18.17,6.69-131.31,84.17-181a149.35,149.35,0,0,1,45.5-19.33C484.26,592.4,540.19,630.52,554,640.51Z"/></g><g id="Layer_4" data-name="Layer 4"><path class="cls-14" d="M282.74,447.23a651.3,651.3,0,0,0,61.33,188L229.74,515.73a500.75,500.75,0,0,1,34.33,91.45,500.93,500.93,0,0,1,15.67,92.72l-59.5-80.67a578.89,578.89,0,0,1,33.5,119,586.83,586.83,0,0,1-5.34,220.83,700.25,700.25,0,0,0-21.66-102.33,701,701,0,0,0-44.67-114.67c-10.09,70.4-7.55,119,4.66,150.16h0c22.15,57.29,21.66,81.33,21.66,81.33-22.17-32.15-30-37.29-33.07-35.81-8,3.89,9,58.18,27.16,98.73a440.38,440.38,0,0,0,35,63.5c-37.93-23.61-103.55-72.1-150.51-156.91A420.62,420.62,0,0,1,45.74,836.23s-73.26-239-4.24-444.64c22.08-65.8,57.4-117.17,57.4-117.17h0S164.94,173.3,274,103.74C427.09,6,664-28.34,875.34,56.12c52.78,21.09,220.43,93.26,319.44,278.22,111.47,208.26,58.81,415.76,34.63,489.79-31.62,96.76-80.32,166.91-115.17,209.6,27.87-54.26,66.25-149.07,60.5-267.5-6-122.92-56.82-215.93-58.67-215.33s42.27,86.82,43.67,197.66c1.34,107.14-37.68,196.9-76,261.17,7.64-54.58,12.88-133-2-224.5-29.14-179-117.81-300.34-118.5-300s70.88,97.57,93,242.5c14.85,97.33,2.2,181.82-12.5,241.5C1021.57,914,987.89,835,941.4,742.56,839,539,752.6,425.75,752.24,426s121.62,142.57,169,360.25a846.24,846.24,0,0,1,17.5,124.5,2404.91,2404.91,0,0,0-246-371.5c-94.1-117-168.47-187.26-168.75-187-.47.43,100,90.65,182.25,236.5a984.24,984.24,0,0,1,69.5,152.5c-36-56.64-129.41-185.54-301-253A606.35,606.35,0,0,0,282.74,447.23Z"/></g><g id="Ear"><path class="cls-4" d="M190.36,989.07c-6.55,0-16-2-24.05-5.17-19-7.39-29.49-21.53-48.56-47.21l-4.68-6.29c-10.91-14.63-20.34-27.27-26.27-47.21l-.75-2.52c-4.08-13.58-7.6-25.31-2.65-37.86C88,831.1,99.48,819,110.68,819c.49,0,1,0,1.49.07,5.49.53,9.31,3.87,12.67,6.81,5,4.41,7.54,10.61,20.88,47.23,1.58,4.33,2.42,6.92,3.3,9.67,1,3.22,2.12,6.56,4.46,12.86l.73,2c6.27,16.89,12.19,32.85,21.16,49.49a241.7,241.7,0,0,0,17.16,27.17c4.63,6.52,7.43,10.45,6.27,12.34C197.84,988.17,194.77,989.07,190.36,989.07Z"/><path class="cls-5" d="M110.68,816.48v5c.41,0,.84,0,1.25.06,4.69.45,8,3.37,11.26,6.2,4.56,4,7.23,10.64,20.18,46.2,1.56,4.29,2.39,6.86,3.27,9.59,1.05,3.25,2.13,6.61,4.49,13l.73,2c6.3,17,12.26,33,21.31,49.82A243.16,243.16,0,0,0,190.5,975.7c2.7,3.81,5.75,8.1,6.06,9.7-.45.37-2.15,1.17-6.2,1.17-6.26,0-15.35-2-23.14-5-18.32-7.12-28.67-21.06-47.46-46.37l-4.68-6.29C104.31,914.46,95,902,89.2,882.47c-.26-.84-.51-1.68-.76-2.51-3.94-13.14-7.34-24.49-2.72-36.23,4.31-10.93,14.82-22.25,25-22.25v-5m0,0c-12.81,0-24.84,13.32-29.61,25.42-5.58,14.15-1.07,27.2,3.33,42,5.94,20,15.36,32.83,26.67,48,22.36,30,33.15,46.09,54.33,54.33,7.68,3,17.48,5.34,25,5.34,5,0,9-1.06,10.58-3.67,3.59-5.89-8.29-14-23.37-42-9.23-17.14-15.25-33.64-21.75-51.15-4.28-11.52-4.27-13-7.75-22.52-13.47-37-16.07-43.42-21.58-48.25-3.51-3.07-7.79-6.82-14.09-7.42-.57,0-1.15-.08-1.72-.08Z"/></g><g id="Layer_39" data-name="Layer 39"><path class="cls-14" d="M181.24,740.48a1037.31,1037.31,0,0,0,62.68,294.09A423.09,423.09,0,0,1,93.57,807.48"/></g><g id="Layer_15" data-name="Layer 15"><path class="cls-15" d="M656.39,1239.53l-25.94-7.35"/><path class="cls-15" d="M810.39,1240.34l-28.38,3"/></g><g id="Layer_14" data-name="Layer 14"><path d="M417.74,1420.23a174.64,174.64,0,0,1,11.65-33.8,168.72,168.72,0,0,1,29.32-43.92,158.79,158.79,0,0,1,35.53-28.33,186.69,186.69,0,0,1,18.84-9.39,306.11,306.11,0,0,1,42.22-15.21c14.93-4.22,26.46-6.31,29.79-6.9a299,299,0,0,1,32.17-3.91c9.91-.63,18.57-.67,25.56-.5a170.13,170.13,0,0,0,36.08,32.88c12.69,8.57,21,14.18,33.5,16.75,32.89,6.75,60-14.7,64.18-18.08a85.4,85.4,0,0,0,22.16-27.71c.58,0,1.42,0,2.45.07,1.23,0,5.91.2,12.69.68a65.38,65.38,0,0,0,7.33.57s5.82.5,10.9,1.07c8.23.93,18,2.48,23.58,3.52,29.66,5.54,56.68,16.49,56.68,16.49,12.31,5,31,12.7,52,27.8a146.28,146.28,0,0,1,21.4,18,140.44,140.44,0,0,1,24.66,35,152.88,152.88,0,0,1,9.12,23.33c1.37,4.57,2.33,8.53,3,11.56"/></g><g id="Layer_17" data-name="Layer 17" class="cls-16"><path class="cls-17" d="M800,1083.17c11.51,0,21.83-.52,30.68-1.19"/></g><g id="Layer_19" data-name="Layer 19"><path class="cls-18" d="M28.34,766.18c-3-10.82-5.65-21.81-8-32.77-18.86-87.47-36.9-259,54.12-425.11,22-40.18,72.61-117.66,163.92-185A591,591,0,0,1,433,29.09C490.94,13.1,552.88,5,617.15,5,735.78,5,824.77,32.81,834.52,36A666.24,666.24,0,0,1,956.35,88.27c64.6,36,120.86,82.22,167.22,137.51A594.53,594.53,0,0,1,1224.93,400.2c-113.79-41.85-238.41-63.94-361.16-63.94a1021,1021,0,0,0-274.38,37.49C289.16,457.5,110.87,651.92,28.34,766.18Z"/><path class="cls-19" d="M617.15,10C735,10,823.3,37.6,833,40.74a661.44,661.44,0,0,1,120.94,51.9C1018,128.3,1073.78,174.17,1119.74,229a588.7,588.7,0,0,1,96.6,162.79c-111.53-39.64-232.94-60.52-352.57-60.52a1026.45,1026.45,0,0,0-275.72,37.67C293.68,451.05,116,639,30.49,754.76c-1.9-7.44-3.66-14.93-5.28-22.41a672.27,672.27,0,0,1-15-158.61c2.45-95.92,25.54-184.42,68.63-263a533.44,533.44,0,0,1,48.52-72.79,593.2,593.2,0,0,1,114-110.63,586.34,586.34,0,0,1,193-93.38C491.83,18,553.33,10,617.15,10m0-10c-113.28,0-254,25-381.75,119.23C133.61,194.35,83.23,281.89,70.07,305.9c-103.4,188.68-64.66,382-54.63,428.56,3.92,18.17,8,33,10.92,43.09,49.12-69.57,228.22-305.22,564.38-399a1014.22,1014.22,0,0,1,273-37.3c177.25,0,312.52,45.73,369.56,67.43A602.52,602.52,0,0,0,1127.4,222.56C1018.17,92.29,884.09,46.84,836.07,31.23,823.78,27.24,735.43,0,617.15,0Z"/></g><g id="Layer_24" data-name="Layer 24"><path class="cls-20" d="M308.39,436.41c3.94-36.59,18.31-118.15,82.66-184.33,123.37-126.89,313.1-72.55,329-67.73,84.82,25.7,139.26,78.07,164.2,105.5A1133.46,1133.46,0,0,0,308.39,436.41Z"/></g><g id="Layer_25" data-name="Layer 25"><circle class="cls-21" cx="333.82" cy="454.44" r="7.17"/><circle class="cls-21" cx="433.65" cy="405.06" r="7.17"/><circle class="cls-21" cx="381.4" cy="429.24" r="7.17"/><circle class="cls-21" cx="543.64" cy="362.67" r="7.17"/><circle class="cls-21" cx="488.84" cy="383.11" r="7.17"/><circle class="cls-21" cx="601.97" cy="346.6" r="7.17"/><circle class="cls-21" cx="653.22" cy="334.6" r="7.17"/><circle class="cls-21" cx="711.22" cy="325.6" r="7.17"/><circle class="cls-21" cx="765.47" cy="318.43" r="7.17"/><circle class="cls-21" cx="818.72" cy="314.93" r="7.17"/><circle class="cls-21" cx="877.1" cy="314.93" r="7.17"/></g><g id="Layer_27" data-name="Layer 27"><path class="cls-22" d="M780.6,1145.06c-2.71,0-5.16-.06-7.4-.12-21.47-.61-45.81-1.3-67.21-17.84-17-13.11-24.49-29.92-29-40-8.9-19.85-10-37.22-10.67-46.55-.7-10.53-1.86-28.15,5.21-48.92a109.05,109.05,0,0,1,9.22-20.08,187.44,187.44,0,0,0,25.9,4.57,181.83,181.83,0,0,0,19.42,1.29,101.6,101.6,0,0,0,15.75-1.2c7.86-1.22,15.91-3.58,31.92-9.36,12.61-4.55,18.94-6.84,24.2-7.78A78.07,78.07,0,0,1,812.7,958c2.93,0,6.12.09,9.47.26a139.86,139.86,0,0,1,23.33,3,104.89,104.89,0,0,0,19,2.42c2,.08,4.38.16,7,.16a104.24,104.24,0,0,0,29.8-4.11,99.23,99.23,0,0,0,30.81-15.32,186.35,186.35,0,0,1-3.32,72.07,208,208,0,0,1-20,49.51c-4.73,8.47-11.22,20.06-22.65,32.59a146.42,146.42,0,0,1-44.62,33.33C822.79,1140.76,802.85,1145.06,780.6,1145.06Z"/><path class="cls-5" d="M928.19,953.12a180.21,180.21,0,0,1-4.21,62.16,202.65,202.65,0,0,1-19.53,48.27c-4.61,8.25-10.93,19.55-22,31.66a141.23,141.23,0,0,1-43.05,32.18c-18.09,8.52-37.33,12.67-58.82,12.67-2.65,0-5.05-.06-7.26-.12-21.72-.62-44.18-1.25-64.29-16.79-16-12.34-23.18-28.44-27.49-38.05-8.53-19-9.6-35.19-10.24-44.84-.67-10.16-1.8-27.16,4.95-47a103.55,103.55,0,0,1,7-15.95,192.37,192.37,0,0,0,22.89,3.8,186.15,186.15,0,0,0,19.93,1.32,106.37,106.37,0,0,0,16.51-1.26c8.22-1.28,16.51-3.7,32.86-9.6,12.35-4.45,18.54-6.69,23.38-7.56a73.59,73.59,0,0,1,13.87-1c2.85,0,5.95.09,9.21.26a134.47,134.47,0,0,1,22.6,2.87,110.45,110.45,0,0,0,19.8,2.51c2.06.07,4.48.16,7.23.16a109,109,0,0,0,31.21-4.31,103.22,103.22,0,0,0,25.44-11.41m7.49-17.94a95.7,95.7,0,0,1-35.75,19.75,99.61,99.61,0,0,1-28.39,3.91c-2.61,0-4.91-.08-6.86-.16-17.06-.63-19.52-4.19-42.25-5.37-3.69-.19-6.92-.27-9.73-.27a85.13,85.13,0,0,0-15.64,1.14c-5.67,1-12.11,3.35-25,8-15.55,5.62-23.49,8-31,9.13a96.09,96.09,0,0,1-15,1.14,177.61,177.61,0,0,1-18.9-1.27,180.22,180.22,0,0,1-28.75-5.37,113.72,113.72,0,0,0-11.62,24.25c-7.25,21.28-6.24,39.19-5.47,50.86.7,10.57,2,28,11.09,48.26,4.5,10,12.55,28,30.5,41.88,22.69,17.53,47.86,18.24,70.13,18.87,2.15.07,4.68.13,7.54.13a145.76,145.76,0,0,0,63.08-13.63A151.58,151.58,0,0,0,889.86,1102c11.59-12.7,18.15-24.28,23.32-33.52a211.76,211.76,0,0,0,20.5-50.75,194.36,194.36,0,0,0,2-82.5Z"/></g><g id="Layer_28" data-name="Layer 28"><path class="cls-23" d="M676.47,970.39c-1.75-.53-3.55-1.1-5.39-1.74-3.12-1.07-6.06-2.21-8.81-3.37"/><path class="cls-23" d="M934.75,942.49q1.85-1.49,3.73-3.09c2.87-2.47,5.5-4.93,7.92-7.34"/></g><g id="Layer_30" data-name="Layer 30"><path class="cls-24" d="M807.1,963.16A276,276,0,0,1,921.19,1025c.93-2.82,1.5-4.84,1.85-6.17.1-.35.1-.37.84-3.24.41-1.58.5-1.9.63-2.45.29-1.21.45-2,.71-3.3.78-3.88.71-3.4.94-4.58.77-4,1.2-7.24,1.46-9.22s.44-3.61.54-4.47c.12-1.12.29-2.69.46-4.78s.27-3.75.31-4.6c.14-2.63.18-4.63.21-6.18.05-2.57.05-4.49,0-4.95,0-1,0-3.35-.13-6.15s-.34-6.88-.85-11.84A105.68,105.68,0,0,1,890,967.43a111.28,111.28,0,0,1-11.09,1.2,134.29,134.29,0,0,1-14.32.06c-4.15-.17-6.86-.44-7.61-.52-3.8-.39-6.72-.9-7.49-1-1.82-.32-2.05-.42-6.34-1.24-2.29-.44-3.43-.65-4.59-.86-4-.69-7.06-1-9.23-1.22-1-.1-5.19-.51-10.78-.68C815.35,963,811.49,963,807.1,963.16Z"/></g><g id="Layer_29" data-name="Layer 29"><path class="cls-25" d="M690.13,972a31.26,31.26,0,0,0,5.36,14.75c1.84,2.63,4.26,6.1,7.33,5.92,2.6-.16,4.34-2.85,6.17-5.67a29.84,29.84,0,0,0,4.37-11.81Z"/><path class="cls-25" d="M898.47,959.4a23.87,23.87,0,0,0,7.5,10.25c1.9,1.48,6.84,5.33,10.12,3.62,2.53-1.31,2.81-5.27,3.13-9.62A37.83,37.83,0,0,0,918,951Z"/></g></g></svg>