<svg xmlns="http://www.w3.org/2000/svg" xmlns:xlink="http://www.w3.org/1999/xlink" viewBox="0 0 2118.77 1581.02"><defs><style>.cls-1,.cls-19,.cls-22{fill:#1e1e1e;}.cls-1,.cls-21,.cls-22{stroke:#0f0f0f;}.cls-1,.cls-13,.cls-14,.cls-15,.cls-16,.cls-18,.cls-2,.cls-21,.cls-22,.cls-3,.cls-9{stroke-linecap:round;}.cls-1,.cls-10,.cls-12,.cls-16,.cls-18,.cls-9{stroke-miterlimit:10;}.cls-1,.cls-14,.cls-15,.cls-21{stroke-width:10px;}.cls-2{fill:#3f383d;}.cls-2,.cls-3{stroke:#302b2e;}.cls-13,.cls-14,.cls-15,.cls-2,.cls-21,.cls-22,.cls-3{stroke-linejoin:round;}.cls-13,.cls-16,.cls-18,.cls-2,.cls-22,.cls-3{stroke-width:5px;}.cls-3{fill:#4f464c;}.cls-4{fill:#fef1e7;}.cls-5{fill:#3f373b;}.cls-6,.cls-7,.cls-8{opacity:0.9;}.cls-6{fill:url(#radial-gradient);}.cls-7{fill:url(#radial-gradient-2);}.cls-8{fill:url(#radial-gradient-3);}.cls-9{fill:#60483c;stroke-width:7px;}.cls-13,.cls-14,.cls-15,.cls-16,.cls-9{stroke:#3f373b;}.cls-10{fill:#fff;}.cls-10,.cls-12{stroke:#2e2e33;stroke-width:8px;}.cls-11{fill:#603f4f;}.cls-12{fill:#2e2e33;}.cls-13,.cls-21{fill:#6b5d66;}.cls-14{fill:none;}.cls-15{fill:#c16053;}.cls-16,.cls-18{fill:#fef0e7;}.cls-17{opacity:0.08;}.cls-18{stroke:#a36e66;}.cls-20{fill:#0f0f0f;}</style><radialGradient id="radial-gradient" cx="878.28" cy="947.97" r="135.95" gradientTransform="translate(35.38 67.04) scale(0.95 0.95)" gradientUnits="userSpaceOnUse"><stop offset="0" stop-color="#ffcfcb"/><stop offset="0.75" stop-color="#ffdecf" stop-opacity="0"/></radialGradient><radialGradient id="radial-gradient-2" cx="1431.79" cy="886.86" r="135.95" gradientTransform="translate(35.38 70.89) scale(0.95 0.95)" xlink:href="#radial-gradient"/><radialGradient id="radial-gradient-3" cx="1439.89" cy="886.86" r="135.95" gradientTransform="translate(35.38 70.89) scale(0.95 0.95)" xlink:href="#radial-gradient"/></defs><title>chaseHue</title><g id="Layer_2" data-name="Layer 2"><g id="Layer_22" data-name="Layer 22"><path class="cls-1" d="M356.05,770c-1.54,20.78-20.57,337.26,183.62,459.24,108.7,64.94,228,43.3,279.33,34,453.53-82.22,700-760.95,731.85-852A976.71,976.71,0,0,0,1201,339.9c-44.17-.75-188-.18-357.25,61.4C580.59,497.08,423.77,679.44,356.05,770Z"/></g><g id="Layer_18" data-name="Layer 18"><path class="cls-2" d="M963.67,1202.23q-5.16,24.68-10.33,49.33-10.83-25.15-21.67-50.33-2.67,21-5.33,42l-17.67-54.67q-2.52,26.31-5,52.6l-40.46-74c-.36-.9-.63-1.33-.82-1.29q-1.87.35,7.66,62.33l-43.33-74.67q9.5,38.18,19,76.34c-5.38-6.05-13.23-15.25-22-27-25.4-34-35.42-58.45-38.67-57.34s3,25.35,10.34,44a200.13,200.13,0,0,0,11.29,24,555.55,555.55,0,0,1-58.29-67.7q-7.8-10.7-14.71-21.2c-.81-1.73-1.35-2.55-1.63-2.47q-1.79.54,12,53.67-34.32-40-68.66-80,8.49,24.33,17,48.66L633,1073.23l15,57.67a232.73,232.73,0,0,1-42.33-66.34,227.78,227.78,0,0,1-10.33-30.66q2.16,24,4.33,48l-32.23-66.67c-.43-.89-1.29-3.77-1.77-3.67-1.43.31,3,26.88,7.33,51a285.75,285.75,0,0,1-46.66-90,280.53,280.53,0,0,1-10-46"/><path class="cls-3" d="M1138.59,1211.4l9.3,46.16,19.5-47.1q2.38,19.66,4.79,39.31l15.9-51.16q2.26,24.62,4.54,49.22,18.21-34.61,36.4-69.22c.33-.84.57-1.24.74-1.21q1.7.33-6.89,58.33l39-69.87-17.09,71.43c4.84-5.66,11.9-14.27,19.79-25.27,22.85-31.84,31.87-54.69,34.79-53.65s-2.73,23.72-9.3,41.18a191.27,191.27,0,0,1-10.16,22.49,515.79,515.79,0,0,0,52.45-63.35q7-10,13.23-19.84a17.59,17.59,0,0,1,.91-1.79c.09-.14.48-.54.55-.52.63.15-7.79,34.62-16.39,69.19q33.69-46.92,67.37-93.83-9.68,31.35-19.37,62.71,28.72-42,57.46-83.92-7.41,31.57-14.84,63.17a293.87,293.87,0,0,0,39.43-71.28,289.42,289.42,0,0,0,9.3-28.7l-3.9,44.92,29-62.39,1.59-3.43"/></g><g id="Layer_43" data-name="Layer 43"><path class="cls-4" d="M1046.09,1334.92c-31.64,0-60.93-17.75-76.58-46.35l.08-51.74a2.51,2.51,0,0,0-1.7-2.37l-22.41-7.56c-7.52-2.58-15.16-5.25-22.72-7.93-76-27-144.84-55.75-176.59-71.06-49.41-23.84-132.12-63.73-197.48-143.67C482,922.64,465.82,838.45,450.21,757c-30.71-160.16-.48-287,13.93-334.13,12-39.08,26.85-87.72,63-140.65C569.6,220.1,629.25,170,704.45,133.31c61.45-30,117.6-43.43,147.76-50.67a632.54,632.54,0,0,1,147.16-17.3c123.12,0,225.61,35,289.94,64.39a503.52,503.52,0,0,1,127.58,97.44c69,73,110.71,151.53,123.88,233.46,11.75,73.1,1.28,153.07,1.17,153.86a548.68,548.68,0,0,1-45.79,157.29,2.5,2.5,0,0,0,.45,2.76c21.49,22.94,58.19,71.93,62.41,142.35,2.09,34.86-4.23,69.29-18.79,102.32a269.67,269.67,0,0,1-34,56.26c-15.36,20.07-44.6,51.13-120.88,89-80.05,39.78-168.34,65-262.4,75a2.5,2.5,0,0,0-2.24,2.46l-.41,49.78c-3.15,5.11-26.49,40.56-69.48,43C1049.28,1334.87,1047.67,1334.92,1046.09,1334.92Z"/><path class="cls-5" d="M999.37,67.85h0c122.61,0,224.71,34.85,288.81,64.12a501.4,501.4,0,0,1,126.89,96.91c16.66,17.62,41.59,45.47,65.62,83.77,30.11,48,49.49,97.93,57.6,148.38,11.69,72.71,1.27,152.34,1.17,153.13a546.43,546.43,0,0,1-45.59,156.57,5,5,0,0,0,.89,5.52c21.27,22.69,57.57,71.15,61.74,140.79,2.07,34.46-4.18,68.5-18.57,101.17a267.54,267.54,0,0,1-33.66,55.74c-15.2,19.87-44.19,50.65-120,88.32-79.79,39.64-167.79,64.79-261.55,74.75a5,5,0,0,0-4.48,4.93l-.14,16.91-.26,32.17a97.65,97.65,0,0,1-17.56,20.25c-14.69,12.89-31.37,20-49.57,21-1.54.09-3.1.14-4.63.14a83.06,83.06,0,0,1-43.13-12.23,87.66,87.66,0,0,1-31-32.26l0-24.91,0-26.19a5,5,0,0,0-3.4-4.74l-11.21-3.78-11.18-3.77c-7.53-2.58-15.17-5.25-22.71-7.93-76-26.95-144.65-55.67-176.33-70.95-24-11.59-56.91-27.45-92-50.41-41.3-27-76.51-58.18-104.65-92.59-66.32-81.11-82.4-165-98-246.11-30.6-159.61-.49-286,13.88-332.93,11.91-38.92,26.73-87.35,62.68-140,42.19-61.78,101.52-111.6,176.32-148.09C766.75,105.7,822.72,92.28,852.8,85.08A629.09,629.09,0,0,1,999.37,67.85h0m0-5A633.52,633.52,0,0,0,851.63,80.21C791.71,94.58,625,134.58,525.09,280.83c-36.37,53.24-51.45,102.51-63.34,141.33-8.25,27-47.49,160.62-14,335.33,15.52,80.91,31.88,166.24,99,248.34C612.47,1086.19,697,1127,745.09,1150.16c31.1,15,99.78,43.83,176.83,71.17,9.52,3.37,17.41,6.1,22.76,7.94l22.41,7.56L967,1289.2c16,29.74,46.59,48.22,79.09,48.22,1.63,0,3.27-.05,4.91-.15,46.28-2.66,70-41.69,71.84-44.82q.21-25.23.41-50.46c120.19-12.76,208.58-48.08,263.25-75.25,79.74-39.62,108.22-72.07,121.75-89.75,15.42-20.13,58.19-77.83,53.25-160.25-4.65-77.64-48.75-128.62-63.08-143.91a552,552,0,0,0,46-158s10.76-80.26-1.18-154.6c-19.12-119-94.85-203.41-124.53-234.78a506.69,506.69,0,0,0-128.29-98c-47-21.47-154.34-64.65-291.05-64.65Z"/></g><g id="Layer_13" data-name="Layer 13"><ellipse class="cls-6" cx="873.97" cy="972.17" rx="151.7" ry="96.55"/><ellipse class="cls-7" cx="1402.47" cy="917.67" rx="151.7" ry="96.55"/><ellipse class="cls-8" cx="1410.2" cy="917.67" rx="151.7" ry="96.55"/></g><g id="Layer_11" data-name="Layer 11"><path class="cls-9" d="M958,929.58l-22.48,42.59"/><path class="cls-9" d="M1393.76,863.41l-28.17,65.82"/><path class="cls-9" d="M1435.2,855.66l-45.36,99.82"/><path class="cls-9" d="M1475,860.2l-39.8,93.2"/><path class="cls-9" d="M1502,866.83l-35.43,76.32"/><path class="cls-9" d="M1523,889.37l-16,42.79"/><path class="cls-9" d="M924.34,926.51l-46.12,84.85"/><path class="cls-9" d="M889.68,920.68l-59.2,101.48"/><path class="cls-9" d="M845.5,927.48l-53.25,83.88"/><path class="cls-9" d="M809.88,930.48l-29,50"/></g><g id="Layer_9" data-name="Layer 9"><path class="cls-10" d="M860.66,777.18c-14.48,12.25-34.47-8.47-85-9.75-46.33-1.17-65.67,15.34-77.5,3.25-13.43-13.71-4.44-51.21,16-72.5,34.72-36.18,110.12-33.57,140.14,6.25C871.36,727.06,875.78,764.38,860.66,777.18Z"/><path class="cls-11" d="M892.1,697.53l-.3-.9c-22.55-67-80.06-89.57-80.06-89.57a127.56,127.56,0,0,0-50.39-6.77c-35,2.47-55.89,20.41-57.22,18.22-1.8-3,32.8-42.15,81.11-41.9,21.65.12,37.3,8,47.59,13.37,42.28,21.91,78.13,70.12,66.09,98A28.88,28.88,0,0,1,892.1,697.53Z"/><path class="cls-10" d="M1300.62,790.23c14.48,12.25,34.47-8.48,85-9.75,46.33-1.17,65.67,15.33,77.5,3.25,13.43-13.72,4.44-51.21-16-72.5C1412.4,675.05,1337,677.66,1307,717.48,1289.92,740.11,1285.5,777.43,1300.62,790.23Z"/><path class="cls-11" d="M1269.18,710.58l.3-.9c22.55-67,80.06-89.58,80.06-89.58a127.78,127.78,0,0,1,50.39-6.76c35,2.47,55.89,20.4,57.22,18.22,1.8-3-32.8-42.15-81.11-41.9-21.65.11-37.3,8-47.59,13.37-42.28,21.91-78.13,70.11-66.09,98A29.09,29.09,0,0,0,1269.18,710.58Z"/></g><g id="Layer_6" data-name="Layer 6"><path class="cls-12" d="M773.06,694.67c1.69-11.88,24.78-22.57,37.33-13.34,9.66,7.11,11.94,25.2,3.33,33-8.28,7.52-22.44,1.67-24,1C781.56,711.83,771.86,703.12,773.06,694.67Z"/><path class="cls-12" d="M1388.22,707.72c-1.68-11.88-24.78-22.57-37.33-13.34-9.66,7.11-11.94,25.2-3.33,33,8.28,7.52,22.44,1.67,24,1C1379.72,724.88,1389.43,716.17,1388.22,707.72Z"/></g><g id="Layer_4" data-name="Layer 4"><path class="cls-13" d="M607,447.23a651,651,0,0,0,61.34,188Q611.17,575.48,554,515.73A500.3,500.3,0,0,1,604,699.9l-59.5-80.67a578.26,578.26,0,0,1,33.5,119,586.66,586.66,0,0,1-5.33,220.83A700.39,700.39,0,0,0,551,856.73a700.12,700.12,0,0,0-44.66-114.67c-10.09,70.4-7.55,119,4.66,150.16h0c22.16,57.29,21.67,81.33,21.67,81.33-22.18-32.15-30-37.29-33.07-35.81-8,3.89,9,58.18,27.15,98.73a442.34,442.34,0,0,0,35,63.5c-37.92-23.61-103.54-72.1-150.51-156.91A421,421,0,0,1,370,836.23s-73.25-239-4.24-444.64c22.09-65.8,57.41-117.17,57.41-117.17h0s66-101.12,175.07-170.68C751.35,6,988.3-28.34,1199.6,56.12,1252.38,77.21,1420,149.38,1519,334.34c111.48,208.26,58.82,415.76,34.63,489.79-31.61,96.76-80.31,166.91-115.17,209.6,27.87-54.26,66.26-149.07,60.5-267.5-6-122.92-56.81-215.93-58.66-215.33s42.27,86.82,43.66,197.66c1.35,107.14-37.67,196.9-76,261.17,7.65-54.58,12.89-133-2-224.5-29.13-179-117.8-300.34-118.5-300s70.88,97.57,93,242.5c14.86,97.33,2.2,181.82-12.5,241.5C1345.83,914,1312.15,835,1265.67,742.56,1163.27,539,1076.86,425.75,1076.5,426s121.63,142.57,169,360.25a844.88,844.88,0,0,1,17.5,124.5,2404.16,2404.16,0,0,0-246-371.5c-94.1-117-168.46-187.26-168.75-187-.46.43,100.06,90.65,182.25,236.5a982.33,982.33,0,0,1,69.5,152.5c-36-56.64-129.4-185.54-301-253A606.29,606.29,0,0,0,607,447.23Z"/></g><g id="Ear"><path class="cls-4" d="M514.63,989.07c-6.55,0-16-2-24.05-5.17-19-7.39-29.49-21.53-48.56-47.21l-4.68-6.29c-10.91-14.63-20.34-27.27-26.27-47.21l-.75-2.52c-4.08-13.58-7.6-25.31-2.66-37.86C412.28,831.1,423.74,819,434.94,819c.5,0,1,0,1.49.07,5.5.53,9.31,3.87,12.68,6.81,5,4.41,7.54,10.61,20.88,47.23,1.58,4.33,2.41,6.93,3.3,9.67,1,3.23,2.12,6.56,4.45,12.86l.74,2c6.27,16.89,12.19,32.84,21.16,49.48a241.19,241.19,0,0,0,17.16,27.17c4.63,6.52,7.43,10.45,6.27,12.34C522.11,988.17,519,989.07,514.63,989.07Z"/><path class="cls-5" d="M434.94,816.48v5q.63,0,1.26.06c4.69.45,8,3.37,11.26,6.2,4.55,4,7.22,10.64,20.18,46.2,1.56,4.29,2.39,6.86,3.27,9.59,1,3.25,2.13,6.61,4.49,13l.73,2c6.3,17,12.25,33,21.31,49.82a243.37,243.37,0,0,0,17.32,27.43c2.71,3.81,5.76,8.1,6.07,9.7-.45.37-2.15,1.17-6.2,1.17-6.26,0-15.35-2-23.15-5-18.31-7.12-28.66-21.06-47.45-46.37l-4.68-6.29c-10.78-14.45-20.08-26.92-25.89-46.44l-.75-2.51c-3.94-13.14-7.34-24.49-2.72-36.23,4.31-10.93,14.82-22.25,24.95-22.25v-5m0,0c-12.8,0-24.84,13.32-29.6,25.42-5.58,14.15-1.07,27.2,3.33,42,5.94,20,15.36,32.83,26.67,48,22.36,30,33.14,46.09,54.33,54.33,7.67,3,17.47,5.34,25,5.34,5,0,9-1.06,10.57-3.67,3.6-5.89-8.28-14-23.36-42-9.24-17.14-15.25-33.64-21.75-51.15-4.28-11.52-4.27-13-7.75-22.52-13.47-37-16.07-43.42-21.59-48.25-3.5-3.07-7.78-6.82-14.08-7.42-.58,0-1.15-.08-1.73-.08Z"/></g><g id="Layer_39" data-name="Layer 39"><path class="cls-13" d="M505.5,740.48a1036.77,1036.77,0,0,0,62.69,294.09A422.94,422.94,0,0,1,417.84,807.48"/></g><g id="Layer_45" data-name="Layer 45"><path class="cls-14" d="M1221.68,940.9c.19,24-15.53,44.26-35.7,48.91-24.83,5.72-53.27-13-57.7-43.15-3.44,25.63-25.15,44.78-50,45.05-26.52.29-49.65-21-51.47-48.6"/><g id="Layer_46" data-name="Layer 46"><path class="cls-15" d="M1076.06,991.68c11,68.16,38.34,113.18,57.82,111.7,19.1-1.46,38.51-48.2,41-112.61a51.4,51.4,0,0,1-28.38-11.41A52.8,52.8,0,0,1,1131,957.25a52.22,52.22,0,0,1-2.67-10.59,52.31,52.31,0,0,1-26.73,38.93A51.53,51.53,0,0,1,1076.06,991.68Z"/></g></g><g id="Layer_15" data-name="Layer 15"><path class="cls-16" d="M981.81,1238l-25.94-7.35"/><path class="cls-16" d="M1133.4,1238.38l-28.38,3"/></g><g id="Layer_44" data-name="Layer 44"><path class="cls-16" d="M762,1416.77c-1.31,9.52-4.8,22.18-14.75,31.25-25.57,23.32-74,5-96.91-3.75-52.55-19.94-83.81-56.67-95.09-70.25-13.07-15.73-25.34-34.83-28.5-39.75-11.45-17.82-19.2-32.49-27.25-48.25-21.38-41.86-36.49-75-37.69-77.64-24.61-53.8-80.59-128.59-163.93-175.36a360.74,360.74,0,0,0-95.71-36.91c-63.31-14.56-113.38-8-143.1-3.84-32.23,4.53-56.93,11.8-56.57,14.88.3,2.47,16.76,2.19,17.07,5.56.29,3.22-14.41,6.72-14,8.73s14.2-.63,15.35,2.58-10.69,8.12-10.06,10.57c1.49,5.78,66.94-17.58,139.46-10.65,8.68.83,47.78,5,93.66,25.83,43.68,19.85,71.36,44.77,87.5,59.5,38.68,35.3,60.33,70,74.5,93,21,34.21,15.67,34.55,49.34,99.34,40.4,77.75,59.34,98.84,67.16,107.16a305.92,305.92,0,0,0,63.5,51.5,299.68,299.68,0,0,0,68,30.5c33.57,10.28,59.1,18.09,90.67,10.5,10.36-2.49,34.1-8.53,53.83-30a99.26,99.26,0,0,0,22.84-42.5Z"/><path class="cls-16" d="M1356.77,1417.81c1.31,9.51,4.8,22.17,14.75,31.25,25.57,23.31,74,5,96.91-3.75,52.55-20,83.81-56.68,95.09-70.25,13.07-15.74,25.34-34.84,28.5-39.75,11.45-17.83,19.2-32.5,27.25-48.25,21.38-41.87,36.5-75,37.69-77.64,24.61-53.81,80.59-128.59,163.93-175.36a360.63,360.63,0,0,1,95.71-36.92c63.31-14.56,113.39-8,143.11-3.83,32.23,4.52,56.92,11.79,56.56,14.87-.3,2.48-16.76,2.19-17.06,5.56s14.4,6.72,14,8.73-14.2-.63-15.35,2.59,10.7,8.11,10.06,10.56c-1.49,5.78-66.94-17.58-139.46-10.65-8.68.83-47.78,5-93.66,25.84-43.68,19.84-71.36,44.76-87.5,59.5-38.68,35.29-60.32,69.94-74.5,93-21,34.2-15.67,34.54-49.34,99.33-40.4,77.75-59.34,98.85-67.16,107.17a306.6,306.6,0,0,1-63.5,51.5,300.4,300.4,0,0,1-68,30.5c-33.57,10.27-59.1,18.08-90.67,10.5-10.36-2.49-34.1-8.54-53.83-30a99.32,99.32,0,0,1-22.84-42.5Z"/></g><g id="Layer_42" data-name="Layer 42"><path d="M744.22,1421.36c3-16.34,11.47-49.35,38.75-78.85a151.79,151.79,0,0,1,35.54-28.33,185.65,185.65,0,0,1,18.84-9.39,306.11,306.11,0,0,1,42.22-15.21c14.93-4.22,26.46-6.31,29.79-6.9a298.6,298.6,0,0,1,32.16-3.91c9.92-.63,18.57-.67,25.57-.5a169.62,169.62,0,0,0,36.08,32.88c12.69,8.57,21,14.18,33.5,16.75,32.89,6.75,60-14.7,64.18-18.08a85.34,85.34,0,0,0,22.15-27.71c.58,0,1.43,0,2.45.07,1.24,0,5.91.2,12.7.68a65.13,65.13,0,0,0,7.32.57s5.83.5,10.9,1.07c11,1.23,22.36,3.3,23.59,3.52,75.74,13.94,117,43.25,117,43.25,42.33,30,63.59,71.08,73.88,97L1287.75,1440l-15-53.75q.13,97.38.25,194.75H849.75q-.19-97.37-.41-194.75-6.09,26.93-12.17,53.84Z"/></g><g id="Layer_17" data-name="Layer 17" class="cls-17"><path class="cls-18" d="M1124.25,1083.17c11.52,0,21.84-.52,30.69-1.19"/></g><g id="Layer_19" data-name="Layer 19"><path class="cls-19" d="M352.61,766.18c-3-10.83-5.65-21.81-8-32.77-18.85-87.47-36.89-259,54.13-425.11,22-40.19,72.61-117.66,163.92-185A591.43,591.43,0,0,1,757.3,29.08C815.21,13.1,877.15,5,941.41,5,1060,5,1149,32.81,1158.79,36a666.24,666.24,0,0,1,121.83,52.28c64.6,36,120.86,82.22,167.22,137.51A594.28,594.28,0,0,1,1549.19,400.2c-113.79-41.85-238.41-63.94-361.15-63.94a1021,1021,0,0,0-274.38,37.49C613.42,457.5,435.14,651.92,352.61,766.18Z"/><path class="cls-20" d="M941.41,10c117.86,0,206.16,27.6,215.84,30.74a662,662,0,0,1,120.94,51.9C1342.25,128.3,1398,174.17,1444,229a588.67,588.67,0,0,1,96.59,162.79c-111.53-39.64-232.93-60.52-352.56-60.52a1026.4,1026.4,0,0,0-275.72,37.67C618,451.05,440.25,639,354.76,754.76c-1.9-7.44-3.67-14.93-5.28-22.41a672.27,672.27,0,0,1-15-158.61c2.45-95.92,25.54-184.42,68.63-263a532.51,532.51,0,0,1,48.52-72.79,593.2,593.2,0,0,1,114-110.63,586.15,586.15,0,0,1,193-93.38C816.1,18,877.6,10,941.41,10m0-10c-113.27,0-254,25-381.74,119.23C457.88,194.35,407.5,281.89,394.34,305.9c-103.4,188.68-64.67,382-54.63,428.56,3.91,18.17,8,33,10.92,43.09C399.74,708,578.85,472.33,915,378.56a1014.23,1014.23,0,0,1,273-37.3c177.25,0,312.52,45.73,369.56,67.43a602.52,602.52,0,0,0-105.93-186.13C1342.44,92.29,1208.36,46.84,1160.34,31.23,1148.05,27.24,1059.69,0,941.41,0Z"/></g><g id="Layer_24" data-name="Layer 24"><path class="cls-21" d="M632.66,436.41c3.93-36.59,18.31-118.15,82.66-184.33,123.37-126.89,313.1-72.55,329-67.73,84.82,25.7,139.26,78.07,164.19,105.5A1133.45,1133.45,0,0,0,632.66,436.41Z"/></g><g id="Layer_25" data-name="Layer 25"><circle class="cls-22" cx="658.09" cy="454.44" r="7.17"/><circle class="cls-22" cx="757.92" cy="405.06" r="7.17"/><circle class="cls-22" cx="705.67" cy="429.24" r="7.17"/><circle class="cls-22" cx="867.91" cy="362.67" r="7.17"/><circle class="cls-22" cx="813.11" cy="383.11" r="7.17"/><circle class="cls-22" cx="926.24" cy="346.6" r="7.17"/><circle class="cls-22" cx="977.49" cy="334.6" r="7.17"/><circle class="cls-22" cx="1035.49" cy="325.6" r="7.17"/><circle class="cls-22" cx="1089.74" cy="318.43" r="7.17"/><circle class="cls-22" cx="1142.99" cy="314.93" r="7.17"/><circle class="cls-22" cx="1201.37" cy="314.93" r="7.17"/></g></g></svg>