<svg xmlns="http://www.w3.org/2000/svg" viewBox="0 0 258 258"><defs><style>.cls-1{fill:#fff;}</style></defs><title>cw-logo</title><g id="Layer_2" data-name="Layer 2"><g id="Layer_3" data-name="Layer 3"><path class="cls-1" d="M32.39,129h0s1.32,0,3.94,0C33.71,129,32.39,129,32.39,129Z"/><path class="cls-1" d="M0,0V258H258V0ZM218.75,245.13q-5.9,2.64-12,4.69A137.44,137.44,0,0,1,162.85,257c-4,0-7.92-.19-11.86-.53h-.08q-2.9-.25-5.78-.63l-1.45-.2q-2-.28-4-.63l-2-.34c-1.54-.29-3.08-.61-4.61-.94-.93-.21-1.85-.43-2.78-.66l-1-.25h0a135.73,135.73,0,0,1-27.52-10.15c-7.81-3.91-20.5-10.31-32.77-23.16-4.23-4.43-10-10.5-14.83-20C50,191.3,49.85,187,44.24,174.72a127.25,127.25,0,0,0-7.91-15.24C25.12,142.55,9.92,133.47.75,129h0c9.17-4.46,24.37-13.55,35.58-30.47a127.25,127.25,0,0,0,7.91-15.24C49.85,71,50,66.69,54.12,58.51,58.93,49,64.72,42.94,69,38.51c12.27-12.85,25-19.25,32.77-23.16A135.14,135.14,0,0,1,129.24,5.2v0l1-.24c.93-.23,1.85-.45,2.78-.66,1.53-.34,3.07-.65,4.61-.94l2-.34q2-.34,4-.63l1.45-.2q2.88-.39,5.78-.64H151Q156.9,1,162.85,1a137.44,137.44,0,0,1,43.92,7.18q6.07,2.06,12,4.69c3.81,1.7,7.55,3.6,11.21,5.67L212.5,35.36a110.48,110.48,0,0,0-22.7-8.28c-1.24-.3-2.49-.59-3.75-.85a112.87,112.87,0,0,0-19.26-2.3c-1.31-.05-2.62-.07-3.94-.07a115.86,115.86,0,0,0-12,.64c-1,.11-1.95.23-2.93.36l-1.32.17-2.26.36c-.68.11-1.36.22-2,.35l-1.65.32c-.9.18-1.79.36-2.68.56l-1.1.25c-1.09.26-2.18.53-3.26.82l-.55.15q-1.92.53-3.81,1.11c-2.85.88-5.66,1.87-8.41,3A107.9,107.9,0,0,0,85.72,54.68C81.35,59,76.33,64,71.92,71.85c-.85,1.52-1.49,2.79-2,4C67.17,82,66.59,84.32,64,90.9c-2.26,5.76-4.35,10.08-5.93,13.33a79.12,79.12,0,0,1-4,7.62,52,52,0,0,1-9.88,11.43A54.85,54.85,0,0,1,36.33,129a55.68,55.68,0,0,1,7.91,5.71,52,52,0,0,1,9.88,11.43,81.69,81.69,0,0,1,4,7.62c1.58,3.26,3.67,7.58,5.93,13.34,2.58,6.58,3.16,8.85,5.9,15.07.52,1.18,1.16,2.46,2,4,4.41,7.89,9.43,12.88,13.8,17.17a107.67,107.67,0,0,0,35.15,22.75c2.75,1.11,5.56,2.1,8.41,3q1.89.58,3.81,1.11l.55.15c1.08.28,2.17.56,3.26.81l1.1.25c.89.2,1.78.39,2.68.57l1.65.32,2,.35,2.26.35,1.32.18c1,.13,2,.25,2.93.35a113.13,113.13,0,0,0,12,.65c1.32,0,2.63,0,3.94-.07a113.88,113.88,0,0,0,19.26-2.3c1.26-.27,2.51-.55,3.75-.85a110.51,110.51,0,0,0,22.7-8.29L230,239.46C226.3,241.53,222.56,243.43,218.75,245.13ZM162.85,129h0l93.9,90.49a132.92,132.92,0,0,1-15.39,12.75c-1,.67-1.93,1.29-2.9,1.94L216,212.57h0l-69.95-67.41L129.3,129h0l16.78-16.17L216,45.42h0l22.43-21.61c1,.64,1.95,1.27,2.9,1.94a132.92,132.92,0,0,1,15.39,12.75L162.85,129Z"/></g></g></svg>